<?xml version="1.0" encoding="UTF-8"?><svg id="Layer_2" xmlns="http://www.w3.org/2000/svg" viewBox="0 0 90.1 85.6"><defs><style>.cls-1{fill:#010101;}</style></defs><g id="Layer_1-2"><path class="cls-1" d="M18.1,85.6h53.9c10,0,18.1-8.1,18.1-18.1V18.1c0-10-8.1-18.1-18.1-18.1H18.1C8.1,0,0,8.2,0,18.1v49.4c0,9.9,8.1,18.1,18.1,18.1ZM85.5,67.5c0,7.5-6.1,13.6-13.6,13.6h-7.3c-3.2,0-11.9-8.5-11.9-17.6,0-3.3,2.7-6,6-6h26.7v10h.1ZM85.5,52.9h-24.5v-20.2h24.5v20.2ZM25.2,4.6h46.7c7.5,0,13.6,6.1,13.6,13.6v10h-26.7c-3.3,0-6-2.7-6-6s2.7-6,6-6c1.2,0,2.2-1,2.2-2.2s-1-2.2-2.2-2.2c-5.8,0-10.5,4.7-10.5,10.5,0,5,3.6,9.3,8.3,10.3v20.8c-4.7,1-8.3,5.3-8.3,10.3,0,6.4,3.7,13.2,8,17.6h-22.6c4.4-4.3,8-11.2,8-17.6,0-5-3.6-9.3-8.3-10.3v-21c4.7-1,8.3-5.3,8.3-10.3,0-5.8-4.7-10.5-10.5-10.5-3.3,0-6-2.7-6-6v-1ZM4.5,18.1c0-7.5,6.1-13.6,13.6-13.6h2.6v1c0,5.8,4.7,10.5,10.5,10.5,3.3,0,6,2.7,6,6s-2.7,6-6,6H4.5v-9.9ZM4.5,32.7h24.5v20.3H4.5v-20.3ZM4.5,57.4h26.7c3.3,0,6,2.7,6,6,0,9-8.7,17.6-11.9,17.6h-7.3c-7.5,0-13.6-6.1-13.6-13.6v-10h.1Z"/></g></svg>