<svg xmlns="http://www.w3.org/2000/svg" width="150" height="36" fill="none" viewBox="0 0 150 36"><path fill="url(#a)" fill-rule="evenodd" d="M29.129 20.402 17.491 8.003l.729-.684 11.638 12.399-.729.684Z" clip-rule="evenodd"></path><path fill="url(#b)" fill-rule="evenodd" d="m28.037 11.87-5.578 14.908-.937-.35L27.1 11.519l.937.35Z" clip-rule="evenodd"></path><path fill="url(#c)" fill-rule="evenodd" d="m29.131 25.867-4.812 2.892-.515-.857 4.812-2.893.515.858Z" clip-rule="evenodd"></path><path fill="url(#d)" fill-rule="evenodd" d="m16.438 28.813-9.2-5.75.53-.848 9.2 5.75-.53.848Z" clip-rule="evenodd"></path><path fill="url(#e)" fill-rule="evenodd" d="m28.211 22.542-6.19-1.47.23-.973 6.191 1.47-.23.973Z" clip-rule="evenodd"></path><path fill="url(#f)" fill-rule="evenodd" d="m24.75 7.104-6.108-1.459.233-.973 6.107 1.46-.232.972Z" clip-rule="evenodd"></path><path fill="url(#g)" fill-rule="evenodd" d="m13.767 20.33-5.224.522-.1-.996 5.224-.522.1.995Z" clip-rule="evenodd"></path><path fill="url(#h)" fill-rule="evenodd" d="M12.36 8.722 7.546 16.75l-.858-.514 4.813-8.028.857.514Z" clip-rule="evenodd"></path><path fill="url(#i)" fill-rule="evenodd" d="M16.61 15.17 15.338 9.3l.977-.212 1.272 5.87-.977.212Z" clip-rule="evenodd"></path><path fill="url(#j)" fill-rule="evenodd" d="m19.406 23.43.623 2.886-.978.21-.622-2.885.977-.211Z" clip-rule="evenodd"></path><path fill="#5BC2CB" d="M14.547 9.454a4.385 4.385 0 1 0 0-8.77 4.385 4.385 0 0 0 0 8.77Z"></path><path fill="#DF7057" d="M29.077 12.005a4.385 4.385 0 1 0 0-8.77 4.385 4.385 0 0 0 0 8.77Z"></path><path fill="#68BDE8" d="M32.54 27.51a4.385 4.385 0 1 0 0-8.77 4.385 4.385 0 0 0 0 8.77Z"></path><path fill="#214D7D" d="M20.423 35.063a4.385 4.385 0 1 0 0-8.77 4.385 4.385 0 0 0 0 8.77Z"></path><path fill="#F09A4D" d="M4.387 24.128a4.385 4.385 0 1 0 0-8.77 4.385 4.385 0 0 0 0 8.77Z"></path><path fill="#EFBA4F" d="M18.01 23.716a4.385 4.385 0 1 0 0-8.77 4.385 4.385 0 0 0 0 8.77Z"></path><path fill="#212121" d="M42.075 28.204V6.436h6.262c1.24 0 2.313.123 3.215.37.913.246 1.667.61 2.262 1.092a4.31 4.31 0 0 1 1.323 1.738c.297.687.446 1.467.446 2.339a4.59 4.59 0 0 1-.308 1.661 4.893 4.893 0 0 1-.861 1.477 5.7 5.7 0 0 1-1.4 1.185c-.544.328-1.17.58-1.877.754 1.713.256 3.03.825 3.954 1.707.923.882 1.384 2.047 1.384 3.493 0 .923-.164 1.753-.492 2.492a5.043 5.043 0 0 1-1.43 1.877c-.626.513-1.396.908-2.308 1.184-.913.267-1.95.4-3.108.4h-7.062Zm1.57-10.43v9.169h5.461c1.918 0 3.364-.41 4.338-1.23.975-.832 1.462-1.996 1.462-3.493 0-.687-.133-1.303-.4-1.846a3.718 3.718 0 0 0-1.123-1.4c-.492-.39-1.098-.688-1.815-.893-.718-.205-1.534-.307-2.447-.307h-5.477Zm0-1.154h4.723c1.005 0 1.861-.128 2.569-.385.718-.256 1.302-.595 1.754-1.015.461-.42.8-.898 1.015-1.431a4.36 4.36 0 0 0 .323-1.646c0-1.467-.467-2.575-1.4-3.323-.923-.76-2.354-1.139-4.292-1.139h-4.693v8.939ZM62.556 6.435c.144 0 .257.02.339.062.082.03.169.107.261.23L77.25 25.59a8.963 8.963 0 0 1-.047-.892V6.435h1.385v21.77h-.754a.664.664 0 0 1-.57-.308L63.11 9.004c.03.308.046.6.046.877v18.323h-1.37V6.436h.77Zm35.534 0v1.308H86.63v8.8h9.538v1.277H86.63v9.077h11.46v1.308H85.044V6.434h13.047Zm15.657 2.646c-.093.175-.226.262-.4.262-.134 0-.308-.092-.523-.277a5.53 5.53 0 0 0-.847-.63c-.359-.237-.81-.452-1.353-.647-.534-.195-1.195-.292-1.985-.292s-1.487.112-2.092.338a4.445 4.445 0 0 0-1.508.923c-.4.39-.708.841-.923 1.354a4.312 4.312 0 0 0-.308 1.615c0 .739.154 1.35.462 1.831.318.482.733.893 1.246 1.231a8.329 8.329 0 0 0 1.738.862c.657.225 1.329.45 2.016.677.687.225 1.354.476 2 .753a7.02 7.02 0 0 1 1.754 1.016c.512.41.923.918 1.23 1.523.318.595.477 1.338.477 2.23a7.01 7.01 0 0 1-.477 2.585 5.939 5.939 0 0 1-1.353 2.093c-.595.595-1.324 1.066-2.185 1.415-.862.338-1.846.508-2.954.508-1.436 0-2.672-.252-3.708-.754a8.842 8.842 0 0 1-2.723-2.092l.431-.677c.123-.154.267-.231.431-.231.092 0 .21.061.354.184.143.123.318.277.523.462.205.174.451.37.738.585.287.205.621.4 1 .584.38.175.816.323 1.308.446a6.936 6.936 0 0 0 1.677.185c.861 0 1.631-.128 2.307-.385.677-.266 1.247-.625 1.708-1.077a4.495 4.495 0 0 0 1.077-1.6 5.416 5.416 0 0 0 .369-2c0-.769-.159-1.4-.477-1.892a3.858 3.858 0 0 0-1.23-1.246 7.74 7.74 0 0 0-1.754-.846 65.287 65.287 0 0 0-2-.662 26.185 26.185 0 0 1-2.016-.723 7.099 7.099 0 0 1-1.738-1.015 4.876 4.876 0 0 1-1.246-1.554c-.308-.626-.462-1.405-.462-2.339 0-.728.139-1.43.416-2.107a5.168 5.168 0 0 1 1.215-1.785c.533-.523 1.19-.938 1.969-1.246.79-.318 1.687-.477 2.693-.477 1.128 0 2.138.18 3.03.538.903.36 1.723.908 2.462 1.647l-.369.707Zm7.706 19.123h-1.584V6.436h1.584v21.77Zm17.503-6.338c.154.287.287.595.4.923.061-.164.123-.323.184-.477.072-.164.149-.318.231-.461l8.554-15.124c.082-.133.164-.215.246-.246a.996.996 0 0 1 .339-.046h1.092v21.77h-1.385V9.65c0-.267.016-.55.047-.847l-8.57 15.216c-.143.267-.348.4-.615.4h-.246c-.257 0-.462-.134-.616-.4l-8.8-15.231c.031.297.046.585.046.862v18.553h-1.369V6.436h1.077a1 1 0 0 1 .339.046c.092.031.179.113.261.246l8.785 15.139Z"></path><defs><linearGradient id="a" x1="17.491" x2="29.129" y1="8.004" y2="20.402" gradientUnits="userSpaceOnUse"><stop stop-color="#5BC2CB"></stop><stop offset="1" stop-color="#68BDE8"></stop></linearGradient><linearGradient id="b" x1="24.779" x2="24.779" y1="11.695" y2="26.603" gradientUnits="userSpaceOnUse"><stop stop-color="#DF7057"></stop><stop offset="1" stop-color="#214D7D"></stop></linearGradient><linearGradient id="c" x1="24.577" x2="29.389" y1="29.188" y2="26.295" gradientUnits="userSpaceOnUse"><stop stop-color="#214D7D"></stop><stop offset="1" stop-color="#68BDE8"></stop></linearGradient><linearGradient id="d" x1="6.973" x2="16.172" y1="23.486" y2="29.236" gradientUnits="userSpaceOnUse"><stop stop-color="#F09A4D"></stop><stop offset="1" stop-color="#214D7D"></stop></linearGradient><linearGradient id="e" x1="21.904" x2="28.096" y1="21.558" y2="23.029" gradientUnits="userSpaceOnUse"><stop stop-color="#EFBA4F"></stop><stop offset="1" stop-color="#68BDE8"></stop></linearGradient><linearGradient id="f" x1="18.526" x2="24.634" y1="6.131" y2="7.59" gradientUnits="userSpaceOnUse"><stop stop-color="#5BC2CB"></stop><stop offset="1" stop-color="#DF7057"></stop></linearGradient><linearGradient id="g" x1="8.593" x2="13.816" y1="21.349" y2="20.827" gradientUnits="userSpaceOnUse"><stop stop-color="#F09A4D"></stop><stop offset="1" stop-color="#EFBA4F"></stop></linearGradient><linearGradient id="h" x1="12.788" x2="7.976" y1="8.979" y2="17.007" gradientUnits="userSpaceOnUse"><stop stop-color="#5BC2CB"></stop><stop offset="1" stop-color="#F09A4D"></stop></linearGradient><linearGradient id="i" x1="14.849" x2="16.122" y1="9.406" y2="15.276" gradientUnits="userSpaceOnUse"><stop stop-color="#5BC2CB"></stop><stop offset="1" stop-color="#EFBA4F"></stop></linearGradient><linearGradient id="j" x1="19.895" x2="20.518" y1="23.324" y2="26.21" gradientUnits="userSpaceOnUse"><stop stop-color="#EFBA4F"></stop><stop offset="1" stop-color="#214D7D"></stop></linearGradient></defs></svg>