<svg xmlns="http://www.w3.org/2000/svg" width="120" height="36" viewBox="0 0 120 36" fill="none"><g clip-path="url(#clip0_203_3220)"><path d="M18.9021 15.5984C19.9402 13.6243 21.0253 9.92406 23.9189 11.0341C25.7273 11.7742 25.9082 13.6243 25.7273 15.4745C25.004 20.2848 21.7487 25.2802 24.5916 29.7724C24.8159 30.1183 25.0799 30.4458 25.3874 30.7455C25.6948 31.0452 26.0493 31.3228 26.4507 31.5707C28.0784 32.4958 29.706 31.7557 31.3336 31.2007C29.3244 32.999 26.6171 33.6391 24.0382 33.2247C23.5228 33.1415 23.0128 33.0175 22.5137 32.851C16.3232 30.2756 16.8658 21.5799 18.6074 16.2978C18.7032 16.0462 18.8009 15.8149 18.9021 15.5984Z" fill="#2BB1BB"></path><path d="M18.8913 35.3043C17.3179 34.3904 16.1063 33.1175 15.1731 31.6337C14.862 31.1397 14.5817 30.6216 14.3303 30.0851C12.7949 27.1286 12.1186 23.9389 12.0842 20.6956C12.077 20.0462 12.0969 19.3968 12.1384 18.7474C12.1638 18.3441 12.2017 17.9426 12.2488 17.5449C13.0698 13.2562 13.9741 9.00092 16.5059 5.11562C17.4102 3.63551 17.4102 1.23033 15.4878 0.397771C15.07 0.166503 14.6016 0.0277431 14.1242 0.00369126C13.6467 -0.0185104 13.1602 0.0739965 12.7081 0.303414C12.256 0.532831 11.8943 0.836254 11.5905 1.18223C11.2867 1.53006 11.0407 1.92414 10.8201 2.34412C9.6337 4.55873 8.72946 6.7789 7.94277 9.24883C7.77639 9.74097 7.61724 10.235 7.46895 10.7308C7.32065 11.2266 7.17959 11.7225 7.05119 12.222C6.77268 13.4283 6.53396 14.6882 6.3712 15.9704C6.28982 16.6124 6.22652 17.2581 6.18673 17.9075C6.13429 18.5698 6.11801 19.2359 6.13971 19.9019C6.31333 22.8363 7.138 25.7687 8.545 28.2979C8.82712 28.8048 9.13275 29.2951 9.4637 29.7724C12.1638 33.7909 17.2275 37.1212 22.1104 35.6411C21.387 36.0111 20.4828 36.0111 19.6943 35.6725C19.4248 35.5948 19.1554 35.4746 18.8913 35.3043Z" fill="#0D71B9"></path><path d="M4.71476 28.2386C-0.495476 23.245 -0.676324 15.2894 0.797588 8.70849C0.956735 8.1294 1.13939 7.55401 1.34556 6.98601C1.55173 6.41802 1.7814 5.85558 2.03459 5.30054C2.57713 5.67056 2.89362 6.22561 3.09798 6.8269C3.30234 7.4282 3.39095 8.07575 3.48138 8.63634C4.02392 14.9213 1.13035 21.5818 4.382 27.2487C4.53391 27.5596 4.81784 27.8574 4.71476 28.2386Z" fill="#0D71B9"></path><path d="M11.6882 32.853C11.7787 32.9196 11.8691 32.9844 11.9595 33.051C11.8691 32.9844 11.7787 32.9196 11.6882 32.853Z" fill="#2A4675"></path><path d="M43.1467 22.2501V24.5165C43.1467 24.8181 43.1177 25.0586 43.0599 25.238C43.002 25.4175 42.8953 25.5803 42.7416 25.7265C42.586 25.8708 42.3889 26.0114 42.1466 26.1465C41.4485 26.5331 40.7758 26.8162 40.1283 26.9938C39.4827 27.1714 38.7774 27.2602 38.016 27.2602C37.128 27.2602 36.3197 27.1196 35.589 26.8403C34.8584 26.5609 34.2363 26.1557 33.7209 25.6229C33.2055 25.09 32.8112 24.4462 32.5345 23.6876C32.2578 22.9291 32.1204 22.0836 32.1204 21.1474C32.1204 20.2112 32.2542 19.3879 32.5218 18.6238C32.7895 17.8615 33.1837 17.2121 33.7046 16.6812C34.2254 16.1483 34.8584 15.7413 35.6035 15.4601C36.3486 15.1788 37.195 15.0364 38.1408 15.0364C38.9184 15.0364 39.6057 15.1418 40.2061 15.3546C40.8047 15.5674 41.2912 15.8338 41.6637 16.1576C42.0363 16.4795 42.3184 16.8218 42.5065 17.1807C42.6946 17.5396 42.7904 17.8615 42.7904 18.1409C42.7904 18.4425 42.6819 18.6978 42.4631 18.9106C42.2442 19.1233 41.9838 19.2288 41.6782 19.2288C41.51 19.2288 41.349 19.1881 41.1935 19.1085C41.038 19.0271 40.9078 18.9143 40.8029 18.77C40.5135 18.3074 40.2694 17.9577 40.0704 17.7209C39.8715 17.4841 39.6021 17.2861 39.2621 17.1252C38.9239 16.9642 38.4916 16.8828 37.9654 16.8828C37.4391 16.8828 36.94 16.979 36.515 17.1696C36.09 17.3602 35.7247 17.6377 35.4226 18.0003C35.1206 18.3629 34.8891 18.8088 34.73 19.3342C34.569 19.8615 34.4895 20.4443 34.4895 21.0845C34.4895 22.4721 34.8005 23.5378 35.4226 24.2852C36.0448 25.0327 36.9128 25.4064 38.0269 25.4064C38.5676 25.4064 39.0758 25.3342 39.5514 25.1881C40.027 25.0438 40.5081 24.8366 40.9982 24.5664V22.6478H39.1861C38.7503 22.6478 38.4211 22.5812 38.1969 22.4462C37.9726 22.3111 37.8623 22.0836 37.8623 21.7616C37.8623 21.4989 37.9563 21.2806 38.1426 21.1085C38.3289 20.9365 38.5821 20.8514 38.904 20.8514H41.5606C41.8862 20.8514 42.1629 20.881 42.3889 20.9402C42.615 20.9994 42.7976 21.1307 42.9369 21.3361C43.0761 21.5396 43.1449 21.8467 43.1449 22.2556L43.1467 22.2501Z" fill="#0D71B9"></path><path d="M45.2263 25.9168V16.3701C45.2263 15.9298 45.3222 15.5968 45.5139 15.371C45.7056 15.1453 45.9642 15.0325 46.2897 15.0325C46.6152 15.0325 46.8775 15.1435 47.0782 15.3673C47.2771 15.5912 47.3784 15.9242 47.3784 16.372V25.9187C47.3784 26.3646 47.2771 26.6994 47.0746 26.9233C46.872 27.1472 46.6116 27.2582 46.2897 27.2582C45.9678 27.2582 45.7182 27.1435 45.5211 26.9122C45.324 26.6809 45.2263 26.3498 45.2263 25.9205V25.9168Z" fill="#0D71B9"></path><path d="M57.656 22.7808C57.656 23.4357 57.5566 24.0407 57.3558 24.5939C57.1569 25.1471 56.8675 25.6226 56.4896 26.0204C56.1116 26.4181 55.6595 26.7234 55.1332 26.9362C54.6069 27.1489 54.0174 27.2544 53.3609 27.2544C52.7044 27.2544 52.1239 27.1471 51.603 26.9325C51.0822 26.7179 50.6319 26.4107 50.2521 26.0093C49.8705 25.6096 49.583 25.136 49.3858 24.5902C49.1887 24.0444 49.0911 23.4413 49.0911 22.7808C49.0911 22.1203 49.1905 21.5042 49.3913 20.951C49.5902 20.3978 49.8777 19.9242 50.2503 19.5319C50.6228 19.1397 51.075 18.8381 51.6067 18.6254C52.1365 18.4126 52.7225 18.3071 53.3645 18.3071C54.0065 18.3071 54.6069 18.4144 55.1368 18.6291C55.6667 18.8437 56.1224 19.1508 56.5004 19.5486C56.8784 19.9464 57.1659 20.42 57.3631 20.9676C57.5602 21.5153 57.6578 22.1203 57.6578 22.7826L57.656 22.7808ZM55.4967 22.7808C55.4967 21.8834 55.3032 21.1841 54.918 20.6846C54.531 20.185 54.0137 19.9353 53.3609 19.9353C52.9413 19.9353 52.5706 20.0463 52.2505 20.2701C51.9304 20.494 51.6826 20.8233 51.509 21.2581C51.3354 21.6929 51.2486 22.2017 51.2486 22.7826C51.2486 23.3636 51.3336 23.8594 51.5054 24.2905C51.6754 24.7197 51.9195 25.049 52.2378 25.2785C52.5561 25.5079 52.9305 25.6207 53.3609 25.6207C54.0119 25.6207 54.531 25.3691 54.918 24.8677C55.305 24.3645 55.4967 23.6707 55.4967 22.7845V22.7808Z" fill="#0D71B9"></path><path d="M61.3364 16.2907V19.6524C61.7415 19.2231 62.1539 18.8938 62.5734 18.6644C62.993 18.4368 63.5139 18.3221 64.1342 18.3221C64.8485 18.3221 65.4761 18.496 66.0132 18.842C66.5521 19.188 66.9699 19.6912 67.2665 20.3499C67.563 21.0085 67.7113 21.7893 67.7113 22.6921C67.7113 23.3582 67.6282 23.9706 67.4636 24.5256C67.2972 25.0825 67.0585 25.5636 66.742 25.9724C66.4273 26.3813 66.0439 26.6977 65.5954 26.9197C65.1469 27.1436 64.6514 27.2546 64.1107 27.2546C63.7797 27.2546 63.4686 27.2139 63.1775 27.1343C62.8863 27.0529 62.6367 26.9475 62.4324 26.8161C62.228 26.6847 62.0526 26.5497 61.9079 26.4091C61.7632 26.2703 61.5734 26.0594 61.3364 25.78V25.9983C61.3364 26.4128 61.2388 26.7255 61.0453 26.9382C60.85 27.151 60.604 27.2564 60.3038 27.2564C60.0036 27.2564 59.7558 27.151 59.575 26.9382C59.3941 26.7255 59.3037 26.4128 59.3037 25.9983V16.3887C59.3037 15.9428 59.3923 15.6061 59.5677 15.3767C59.7432 15.1491 59.9891 15.0344 60.3038 15.0344C60.6348 15.0344 60.8897 15.1436 61.0688 15.3619C61.2478 15.5802 61.3364 15.8892 61.3364 16.2925V16.2907ZM61.4395 22.8291C61.4395 23.706 61.6348 24.3776 62.0273 24.8494C62.4179 25.3193 62.9315 25.5543 63.5681 25.5543C64.1088 25.5543 64.5754 25.3138 64.9679 24.8328C65.3585 24.3517 65.5556 23.6616 65.5556 22.7643C65.5556 22.1834 65.4743 21.6838 65.3115 21.2638C65.1487 20.8439 64.9172 20.5201 64.6188 20.2925C64.3186 20.065 63.9696 19.9502 63.5699 19.9502C63.1702 19.9502 62.7941 20.065 62.474 20.2925C62.1539 20.5219 61.9007 20.8513 61.718 21.2842C61.5336 21.7171 61.4413 22.2315 61.4413 22.8291H61.4395Z" fill="#0D71B9"></path><path d="M74.8746 26.015C74.3537 26.4294 73.851 26.7403 73.3645 26.9456C72.878 27.1528 72.3336 27.2564 71.7296 27.2564C71.178 27.2564 70.6934 27.1454 70.2756 26.9216C69.8578 26.6977 69.5359 26.3961 69.3099 26.015C69.0838 25.6339 68.9717 25.2194 68.9717 24.7736C68.9717 24.1723 69.158 23.6579 69.5305 23.2342C69.903 22.8106 70.4148 22.5256 71.0677 22.3795C71.2033 22.348 71.5433 22.274 72.0841 22.1612C72.6248 22.0483 73.0896 21.9447 73.4748 21.8503C73.86 21.756 74.2796 21.6413 74.7317 21.5081C74.7046 20.9271 74.5906 20.5016 74.3881 20.2296C74.1855 19.9576 73.766 19.8226 73.1312 19.8226C72.585 19.8226 72.1745 19.9003 71.8978 20.0557C71.6211 20.2111 71.386 20.4461 71.1889 20.7569C70.9918 21.0696 70.8525 21.2749 70.7711 21.373C70.6897 21.4729 70.5143 21.5229 70.2467 21.5229C70.0043 21.5229 69.7963 21.4433 69.6209 21.2842C69.4455 21.1251 69.3569 20.9234 69.3569 20.6755C69.3569 20.2888 69.4907 19.9132 69.7584 19.5469C70.026 19.1806 70.4438 18.8809 71.0116 18.644C71.5795 18.4072 72.2848 18.2888 73.1312 18.2888C74.077 18.2888 74.8203 18.4035 75.361 18.6311C75.9018 18.8605 76.2834 19.2213 76.5076 19.7153C76.7301 20.2093 76.8422 20.8661 76.8422 21.682C76.8422 22.1982 76.8422 22.6366 76.8386 22.9956C76.8368 23.3563 76.8313 23.756 76.8277 24.1963C76.8277 24.6107 76.8946 25.0418 77.0285 25.4896C77.1623 25.9391 77.2292 26.2278 77.2292 26.3554C77.2292 26.5811 77.1261 26.7865 76.9181 26.9715C76.7102 27.1565 76.4751 27.249 76.2128 27.249C75.9922 27.249 75.7734 27.1436 75.5582 26.9308C75.343 26.7181 75.1133 26.4109 74.8728 26.0076L74.8746 26.015ZM74.7335 22.8309C74.4188 22.9493 73.9595 23.0733 73.3591 23.2065C72.7568 23.3378 72.3409 23.4359 72.1094 23.497C71.8779 23.558 71.6573 23.6801 71.4475 23.8596C71.2377 24.0391 71.1328 24.2907 71.1328 24.6126C71.1328 24.9345 71.2558 25.2287 71.5036 25.4637C71.7513 25.6968 72.0732 25.8152 72.4729 25.8152C72.8979 25.8152 73.2903 25.719 73.652 25.5284C74.0119 25.3378 74.276 25.0918 74.4441 24.7902C74.6377 24.4572 74.7353 23.9095 74.7353 23.1454V22.8309H74.7335Z" fill="#0D71B9"></path><path d="M79.0288 25.9168V16.3701C79.0288 15.9298 79.1247 15.5968 79.3164 15.371C79.5081 15.1453 79.7667 15.0325 80.0922 15.0325C80.4177 15.0325 80.68 15.1435 80.8807 15.3673C81.0796 15.5912 81.1809 15.9242 81.1809 16.372V25.9187C81.1809 26.3646 81.0796 26.6994 80.8771 26.9233C80.6745 27.1472 80.4141 27.2582 80.0922 27.2582C79.7703 27.2582 79.5207 27.1435 79.3236 26.9122C79.1265 26.6809 79.0288 26.3498 79.0288 25.9205V25.9168Z" fill="#0D71B9"></path><path d="M89.4077 23.3211H85.1994C85.2048 23.8206 85.3024 24.2609 85.4941 24.6439C85.6858 25.025 85.9408 25.3137 86.2591 25.5061C86.5774 25.6985 86.9283 25.7965 87.3117 25.7965C87.5685 25.7965 87.8036 25.7651 88.017 25.704C88.2304 25.643 88.4365 25.5449 88.6355 25.4136C88.8344 25.2822 89.0189 25.1416 89.1871 24.9899C89.3552 24.84 89.5741 24.6347 89.8417 24.3775C89.952 24.2813 90.1094 24.2332 90.3137 24.2332C90.5344 24.2332 90.7134 24.2942 90.8491 24.4182C90.9865 24.5421 91.0534 24.7161 91.0534 24.9418C91.0534 25.1397 90.9775 25.3729 90.8255 25.6393C90.6736 25.9057 90.444 26.161 90.1365 26.4052C89.8291 26.6495 89.4439 26.853 88.9773 27.0139C88.5125 27.1749 87.9772 27.2563 87.3732 27.2563C85.9915 27.2563 84.9172 26.853 84.1504 26.0463C83.3836 25.2396 83.0002 24.1462 83.0002 22.7642C83.0002 22.1148 83.0943 21.5098 83.2842 20.9547C83.4741 20.3997 83.749 19.9223 84.1125 19.5246C84.4742 19.1268 84.9209 18.8215 85.4525 18.6088C85.9824 18.396 86.572 18.2905 87.2176 18.2905C88.0586 18.2905 88.7783 18.4718 89.3806 18.8345C89.9828 19.1971 90.4331 19.667 90.7315 20.2406C91.0317 20.816 91.18 21.4006 91.18 21.9982C91.18 22.5514 91.0245 22.9103 90.7152 23.075C90.406 23.2396 89.9683 23.3211 89.4077 23.3211ZM85.1994 22.0722H89.1002C89.0478 21.3192 88.8489 20.7568 88.5053 20.383C88.1617 20.0093 87.7077 19.8224 87.1453 19.8224C86.5828 19.8224 86.1687 20.0112 85.8251 20.3904C85.4815 20.7697 85.2717 21.3303 85.1994 22.0722Z" fill="#2BB1BB"></path><path d="M101.922 23.5062C101.922 24.2204 101.742 24.8642 101.382 25.4341C101.022 26.0039 100.495 26.4498 99.801 26.7717C99.1084 27.0936 98.2855 27.2546 97.3343 27.2546C96.1949 27.2546 95.2545 27.0344 94.513 26.5941C93.9868 26.2777 93.56 25.854 93.2326 25.3249C92.9035 24.7958 92.7407 24.2814 92.7407 23.78C92.7407 23.4896 92.8384 23.2416 93.0355 23.0344C93.2326 22.8272 93.484 22.7236 93.7878 22.7236C94.0338 22.7236 94.2436 22.805 94.4136 22.966C94.5836 23.1269 94.73 23.3656 94.8512 23.6838C94.9977 24.0594 95.1569 24.3739 95.3287 24.6274C95.4987 24.8809 95.7392 25.0881 96.0502 25.2527C96.3595 25.4174 96.7682 25.4988 97.271 25.4988C97.9636 25.4988 98.5279 25.3341 98.9619 25.003C99.3959 24.6718 99.6111 24.2592 99.6111 23.7652C99.6111 23.373 99.4936 23.0548 99.2603 22.8106C99.027 22.5663 98.725 22.3795 98.3542 22.25C97.9835 22.1205 97.488 21.9835 96.8695 21.8392C96.0394 21.6413 95.3449 21.4082 94.7843 21.1417C94.2255 20.8753 93.7806 20.5127 93.4533 20.0538C93.1241 19.595 92.9614 19.0233 92.9614 18.3406C92.9614 17.6579 93.135 17.1121 93.4822 16.607C93.8294 16.102 94.3304 15.7134 94.9869 15.4415C95.6433 15.1695 96.4156 15.0344 97.3035 15.0344C98.0124 15.0344 98.6255 15.1251 99.1446 15.3045C99.6618 15.484 100.092 15.7245 100.432 16.0224C100.774 16.3203 101.024 16.6329 101.181 16.9623C101.338 17.2897 101.418 17.6098 101.418 17.9225C101.418 18.2074 101.32 18.4646 101.123 18.6921C100.926 18.9216 100.68 19.0344 100.385 19.0344C100.118 19.0344 99.9132 18.966 99.7739 18.8291C99.6347 18.6921 99.4827 18.4683 99.32 18.1556C99.1102 17.7097 98.857 17.3619 98.564 17.1121C98.2711 16.8624 97.7972 16.7366 97.1462 16.7366C96.5421 16.7366 96.0539 16.8716 95.6849 17.1436C95.3142 17.4156 95.1297 17.7412 95.1297 18.1223C95.1297 18.3591 95.193 18.5626 95.3196 18.7347C95.4462 18.9068 95.6198 19.0548 95.8405 19.1787C96.0611 19.3027 96.2835 19.3989 96.5096 19.4692C96.7357 19.5395 97.1082 19.6413 97.6291 19.7763C98.2801 19.9317 98.8697 20.1038 99.3977 20.2925C99.9258 20.4812 100.374 20.7088 100.745 20.9771C101.116 21.2453 101.405 21.5858 101.611 21.9965C101.819 22.4072 101.922 22.9123 101.922 23.5081V23.5062Z" fill="#2BB1BB"></path><path d="M104.002 25.7967V16.4849C104.002 16.002 104.111 15.6376 104.326 15.3971C104.541 15.1547 104.82 15.0344 105.161 15.0344C105.503 15.0344 105.798 15.1547 106.017 15.3933C106.236 15.632 106.344 15.9965 106.344 16.4849V25.7967C106.344 26.2851 106.236 26.6514 106.017 26.8938C105.798 27.1362 105.514 27.2564 105.161 27.2564C104.809 27.2564 104.548 27.1343 104.33 26.8901C104.111 26.6459 104.002 26.2814 104.002 25.7985V25.7967Z" fill="#2BB1BB"></path><path d="M112.86 25.2731L111.008 17.743V25.9021C111.008 26.3536 110.91 26.6921 110.713 26.9179C110.516 27.1436 110.256 27.2564 109.928 27.2564C109.601 27.2564 109.355 27.1454 109.156 26.9216C108.957 26.6977 108.856 26.3591 108.856 25.9021V16.5497C108.856 16.0335 108.988 15.6857 109.25 15.5062C109.512 15.3267 109.867 15.2361 110.314 15.2361H111.039C111.475 15.2361 111.791 15.2768 111.988 15.3563C112.185 15.4377 112.332 15.5821 112.426 15.7911C112.52 16.0002 112.628 16.3425 112.75 16.8143L114.428 23.2879L116.106 16.8143C116.227 16.3406 116.334 16.0002 116.43 15.7911C116.524 15.5821 116.67 15.4359 116.868 15.3563C117.065 15.2749 117.381 15.2361 117.817 15.2361H118.542C118.989 15.2361 119.343 15.3267 119.606 15.5062C119.868 15.6857 120 16.0335 120 16.5497V25.9021C120 26.3536 119.902 26.6921 119.705 26.9179C119.508 27.1436 119.244 27.2564 118.913 27.2564C118.604 27.2564 118.349 27.1436 118.148 26.9179C117.949 26.6921 117.848 26.3536 117.848 25.9021V17.743L115.996 25.2731C115.875 25.7615 115.777 26.1204 115.701 26.3499C115.625 26.5793 115.484 26.7865 115.28 26.9752C115.075 27.1639 114.791 27.2564 114.428 27.2564C114.155 27.2564 113.923 27.1954 113.735 27.0751C113.547 26.9549 113.399 26.7995 113.294 26.6107C113.189 26.422 113.106 26.2148 113.046 25.9854C112.987 25.7578 112.923 25.5192 112.862 25.2712L112.86 25.2731Z" fill="#2BB1BB"></path></g><defs><clipPath id="clip0_203_3220"><rect width="120" height="36" fill="white"></rect></clipPath></defs></svg>