<svg fill="none" height="30" viewBox="0 0 140 30" width="140" xmlns="http://www.w3.org/2000/svg">
  <path clip-rule="evenodd"
        d="M128.528 0.669922C127.96 0.669922 127.493 1.13137 127.541 1.69799C127.647 2.98732 127.953 4.25459 128.45 5.45231C128.718 6.09867 129.039 6.71959 129.408 7.30827C129.556 7.54408 129.391 7.85962 129.113 7.85962H126.699C126.131 7.85962 125.661 8.32276 125.742 8.886C125.827 9.47468 125.985 10.0498 126.214 10.6011C126.574 11.4697 127.101 12.2603 127.768 12.9253C128.433 13.5903 129.223 14.118 130.092 14.4793C130.643 14.7083 131.22 14.8661 131.807 14.9509C132.37 15.0324 132.834 14.5641 132.834 13.9941V11.5698C132.834 11.2916 133.147 11.1271 133.383 11.2746C133.965 11.6377 134.578 11.9532 135.215 12.2179C136.415 12.715 137.682 13.0203 138.971 13.1272C139.538 13.1747 140.001 12.7082 140.001 12.1399V1.69969C140.001 1.13137 139.54 0.669922 138.971 0.669922H128.53H128.528ZM122.156 14.196C122.049 13.6379 122.519 13.1713 123.089 13.1713H126.468C127.037 13.1713 127.498 13.6328 127.498 14.2011V17.5805C127.498 18.1488 127.033 18.6204 126.473 18.5135C126.112 18.444 125.758 18.3388 125.417 18.1963C124.757 17.9232 124.158 17.5228 123.652 17.0172C123.147 16.5117 122.746 15.9128 122.473 15.2529C122.332 14.9119 122.225 14.5573 122.156 14.196Z"
        fill="#000"
        fill-rule="evenodd" />
  <mask height="24" id="mask0_1_1560" maskUnits="userSpaceOnUse" style="mask-type:luminance" width="119" x="0" y="6">
    <path d="M118.245 6.26807H0V29.3301H118.245V6.26807Z" fill="white" />
  </mask>
  <g mask="url(#mask0_1_1560)">
    <path
      d="M75.8963 6.26855C74.6443 6.26855 73.5908 7.30002 73.5908 8.57408C73.5908 9.84814 74.646 10.8796 75.8963 10.8796C77.1467 10.8796 78.2273 9.84814 78.2273 8.57408C78.2273 7.30002 77.1958 6.26855 75.8963 6.26855Z"
      fill="#000" />
    <path
      d="M24.1783 16.6461L23.0485 16.3509C22.0916 16.0812 22.017 15.7368 22.017 15.467C22.017 15.0005 22.5565 14.8292 23.023 14.8292C23.7355 14.8292 24.3972 15.0989 24.9604 15.8114L27.3643 13.8248C26.382 12.4744 24.9366 11.7891 23.0451 11.7891C20.346 11.7891 18.4086 13.2854 18.3356 15.5671C18.2627 17.53 19.4655 19.0263 21.8202 19.5912L22.6311 19.788C23.9086 20.1069 24.1274 20.3275 24.1274 20.7448C24.1274 21.2351 23.5625 21.4319 22.9976 21.4319C21.8439 21.4319 20.9126 20.9653 20.3476 20.1561L17.8945 22.3887C19.0481 23.885 20.8379 24.5958 22.9976 24.5958C25.6712 24.5958 27.7816 22.879 27.7816 20.5226C27.7816 18.3392 26.4075 17.2348 24.1749 16.6461H24.1783Z"
      fill="#000" />
    <path d="M3.90191 6.4165H0V24.328H3.90191V6.4165Z" fill="#000" />
    <path
      d="M12.3877 11.7891C11.0865 11.7891 9.95831 12.2301 9.19829 12.9427V12.0588H5.49316V24.3261H9.19829V16.2797C9.71402 15.6163 10.6216 15.1498 11.5785 15.1498C13.0273 15.1498 13.6634 16.3034 13.6634 17.9711V24.3261H17.3686V17.3332C17.3686 14.0216 15.5788 11.7891 12.3894 11.7891H12.3877Z"
      fill="#000" />
    <path
      d="M58.4108 11.7893C57.1588 11.7893 56.1783 12.2304 55.5166 12.8207V6.4165H51.8115V24.3263H55.5166V23.5408C56.18 24.1549 57.1588 24.596 58.4108 24.596C62.043 24.596 64.4469 21.6272 64.4469 18.1918C64.4469 14.7564 62.043 11.7876 58.4108 11.7876V11.7893ZM57.8459 21.237C56.6923 21.237 56.0307 20.7467 55.5149 20.0579V16.3036C56.0307 15.6403 56.694 15.15 57.8459 15.15C59.5136 15.15 60.618 16.5496 60.618 18.1918C60.618 19.834 59.5136 21.2336 57.8459 21.2336V21.237Z"
      fill="#000" />
    <path d="M77.7627 12.0586H74.0576V24.3259H77.7627V12.0586Z" fill="#000" />
    <path
      d="M87.5367 12.8207C86.8734 12.2321 85.8928 11.7893 84.6425 11.7893C81.0104 11.7893 78.6064 14.7581 78.6064 18.1935C78.6064 21.6289 81.0104 24.5977 84.6425 24.5977C85.8945 24.5977 86.8751 24.1549 87.5367 23.5425V24.328H91.2419V6.4165H87.5367V12.8207ZM87.5367 20.0596C87.021 20.7467 86.3577 21.2387 85.2058 21.2387C83.5381 21.2387 82.4337 19.8408 82.4337 18.1969C82.4337 16.553 83.5381 15.1551 85.2058 15.1551C86.3594 15.1551 87.021 15.6454 87.5367 16.3087V20.063V20.0596Z"
      fill="#000" />
    <path
      d="M101.139 12.8205C100.476 12.2318 99.4717 11.7891 98.196 11.7891C94.6876 11.7891 92.0869 14.4882 92.0869 17.9236C92.0869 21.3589 94.6622 24.058 98.196 24.058C99.4717 24.058 100.478 23.617 101.139 23.0028V23.7153C101.139 25.383 99.6414 26.0955 98.2689 26.0955C97.1645 26.0955 95.9379 25.8003 94.8827 24.9911L92.9453 27.7632C94.4162 28.9168 96.4537 29.3341 98.3181 29.3341C101.36 29.3341 104.844 28.1313 104.844 23.6662V12.0588H101.139V12.8205ZM101.139 19.5182C100.624 20.2053 99.9603 20.6973 98.8084 20.6973C97.1407 20.6973 95.9125 19.5929 95.9125 17.9252C95.9125 16.2576 97.139 15.1532 98.8084 15.1532C99.962 15.1532 100.624 15.6435 101.139 16.3068V19.5216V19.5182Z"
      fill="#000" />
    <path
      d="M118.244 17.776C118.244 13.8011 115.374 11.7891 112.135 11.7891C108.406 11.7891 105.682 14.5611 105.682 18.1933C105.682 22.1444 108.601 24.5975 112.208 24.5975C114.783 24.5975 116.821 23.5423 117.974 21.8984L115.226 19.8372C114.76 20.5497 113.704 21.2368 112.257 21.2368C110.81 21.2368 109.485 20.5497 109.265 19.0789H118.171C118.244 18.4902 118.244 18.0966 118.244 17.7777V17.776ZM109.363 16.6461C109.682 15.2957 110.958 14.8071 112.037 14.8071C113.116 14.8071 114.244 15.3466 114.564 16.6461H109.363Z"
      fill="#000" />
    <path
      d="M35.6409 21.1131C34.3889 21.1131 33.8019 20.5482 33.8019 19.0773V15.2738H37.1083V12.059H33.8019V8.33008H30.0967V12.059H27.7861V15.2738H30.0967V19.8356C30.0967 22.9758 32.158 24.4721 35.1014 24.4721C36.255 24.4721 37.6156 24.1176 38.2636 23.8122C37.5019 23.0403 36.9505 22.058 36.6587 20.9621C36.3398 21.0486 35.9802 21.1097 35.6409 21.1097H35.6392L35.6409 21.1131Z"
      fill="#000" />
    <path
      d="M46.528 12.8205C45.8646 12.2318 44.8858 11.7891 43.6338 11.7891C40.0016 11.7891 37.5977 14.7579 37.5977 18.1933C37.5977 21.6287 40.0016 24.5975 43.6338 24.5975C44.8858 24.5975 45.8663 24.1547 46.528 23.5423V24.3278H50.2331V12.0588H46.528V12.8205ZM46.528 20.0594C46.0122 20.7465 45.3489 21.2385 44.197 21.2385C42.5293 21.2385 41.4249 19.8406 41.4249 18.1967C41.4249 16.5528 42.5293 15.1549 44.197 15.1549C45.3506 15.1549 46.0122 15.6452 46.528 16.3085V20.0628V20.0594Z"
      fill="#000" />
    <path
      d="M69.0215 13.4326V12.0585H65.3164V24.3258H69.0215V16.5745C69.6357 15.7161 70.7876 15.4701 71.646 15.4701C72.0498 15.4701 72.7368 15.577 73.0642 15.6584V12.1009C72.7606 12.011 72.2873 11.9126 71.7444 11.9126C70.4924 11.9126 69.4134 12.5759 69.0215 13.4326Z"
      fill="#000" />
  </g>
</svg>
