<svg fill="none" height="300" viewBox="0 0 832 300" width="832" xmlns="http://www.w3.org/2000/svg"><g clip-path="url(#clip0_8136_12885)"><path d="M214.793 0H167.137V181.287H214.793V0Z" fill="#1530BB"></path><path d="M323.302 134.995C329.512 128.785 332.628 119.458 332.628 107.713C332.628 95.9678 329.523 86.9901 323.651 80.78C317.778 74.221 310.533 71.116 301.893 71.116C293.252 71.116 286.007 74.221 280.135 80.4424C274.262 86.6526 271.506 95.9791 271.506 107.724C271.506 119.47 274.273 128.785 280.135 135.006C285.659 141.216 292.915 144.333 301.544 144.333C310.173 144.333 317.429 141.228 323.302 135.006V134.995ZM262.528 174.011C251.131 168.138 242.154 159.161 235.595 147.764C229.036 136.368 225.582 123.25 225.582 107.713C225.582 92.1765 229.036 79.3962 235.595 67.9996C242.502 56.6031 251.48 47.6254 263.214 41.4152C274.611 35.2051 287.729 32.4375 301.893 32.4375C316.057 32.4375 329.512 35.2051 340.909 41.4152C352.654 47.6254 361.632 56.6144 368.191 67.9996C375.098 79.3962 378.203 92.8628 378.203 107.713C378.203 122.564 375.098 136.379 368.191 147.764C361.283 159.161 352.305 168.138 340.571 174.011C328.826 180.221 315.708 183.338 301.555 183.338C287.402 183.338 274.273 180.232 262.539 174.011H262.528Z" fill="#1530BB"></path><path d="M414.805 176.779C404.792 172.29 396.849 166.417 390.976 158.823C385.104 151.229 381.999 142.589 381.312 132.925H425.852C426.201 138.1 428.62 142.251 432.76 145.357C436.9 148.462 442.087 150.194 448.297 150.194C453.821 150.194 458.309 149.159 461.415 146.74C464.52 144.67 465.903 141.903 465.903 138.449C465.903 134.309 463.833 131.192 459.344 129.122C454.856 127.052 447.948 124.634 437.935 122.215C427.574 119.796 418.596 117.377 411.688 114.621C404.781 111.853 398.57 107.364 393.733 101.503C388.558 95.6303 385.79 87.6876 385.79 77.6749C385.79 69.3834 388.209 61.7895 393.047 54.8818C397.535 47.9741 404.443 42.4502 413.421 38.3101C422.399 34.17 433.109 32.4375 445.529 32.4375C464.171 32.4375 478.684 36.9264 489.383 45.9041C499.744 55.2306 505.954 67.3134 507.687 82.1637H465.903C465.217 77.3261 463.136 73.186 459.344 70.0809C455.542 67.3134 450.367 65.5921 444.494 65.5921C438.97 65.5921 435.168 66.6271 432.411 68.6972C429.306 70.7672 427.922 73.5348 427.922 76.9886C427.922 81.1287 430.341 84.245 434.83 86.6526C439.319 88.7227 446.227 90.7927 455.553 92.8628C466.601 95.6303 475.579 98.3867 482.138 101.154C489.045 103.922 495.255 108.062 500.442 114.272C505.617 120.482 508.036 128.425 508.384 138.449C508.384 147.078 505.966 155.021 501.128 161.579C496.29 168.487 489.383 173.662 480.405 177.465C471.427 181.267 460.717 183.338 448.983 183.338C436.203 183.338 424.806 181.267 414.793 176.779H414.805Z" fill="#1530BB"></path><path d="M565.74 34.543H520.852V181.303H565.74V34.543Z" fill="#1530BB"></path><path d="M815.18 49.3666C826.228 60.4144 831.414 75.951 831.414 95.2902V181.276H786.874V101.512C786.874 92.1852 784.107 84.5912 779.28 79.4161C774.443 74.241 767.535 71.8221 758.557 71.8221C749.58 71.8221 743.021 74.241 737.834 79.4161C732.997 84.5912 730.578 92.1964 730.578 101.512V181.276H685.689V101.512C685.689 92.1852 683.271 84.5912 678.095 79.4161C673.258 74.241 666.35 71.8221 657.372 71.8221C648.395 71.8221 641.836 74.241 636.998 79.4161C631.823 84.5912 629.404 92.1964 629.404 101.512V181.276H584.516V34.5162H629.404V52.8204C633.893 46.6103 639.766 41.7726 647.36 38.3188C654.616 34.5162 662.896 32.7949 672.223 32.7949C683.271 32.7949 693.283 35.2137 701.924 40.0514C710.552 44.5402 717.46 51.4479 722.298 60.0769C727.473 52.1342 734.381 45.5752 743.021 40.3889C751.999 35.2137 761.325 32.7949 771.687 32.7949C789.991 32.7949 804.492 38.3188 815.191 49.3666H815.18Z" fill="#1530BB"></path><path d="M97.7199 134.995C103.93 128.785 107.046 119.458 107.046 107.713C107.046 95.9678 103.941 86.9901 98.0687 80.78C92.196 74.221 84.9509 71.116 76.3107 71.116C67.6704 71.116 60.4253 74.221 54.5526 80.4424C48.68 86.6526 45.9236 95.9791 45.9236 107.724C45.9236 119.47 48.6912 128.785 54.5526 135.006C60.0765 141.216 67.3329 144.333 75.9619 144.333C84.5909 144.333 91.8473 141.228 97.7199 135.006V134.995ZM152.621 181.267H107.733V169.522C100.825 177.465 87.3584 182.989 73.5431 183.337C59.7277 183.686 48.3312 180.232 36.9347 174.011C25.5381 168.138 16.5604 159.161 10.0015 147.764C3.45384 136.379 0 123.261 0 107.713C0 92.1652 3.45384 79.3962 10.0127 67.9996C16.5717 56.6031 25.8981 47.6254 37.2947 41.4152C49.04 35.2051 61.809 32.4375 76.3107 32.4375C123.618 32.4375 152.621 64.5458 152.621 115.307V181.256V181.267Z" fill="#1530BB"></path><path d="M332.542 241.263C293.503 280.301 242.044 300.012 190.968 300.012C139.892 300.012 88.433 280.313 49.3945 241.263L79.6803 210.617C110.326 241.263 150.838 256.597 190.968 256.597C231.098 256.597 271.239 241.274 301.896 210.617L332.542 241.263Z" fill="#4CDA64"></path><path d="M385.544 233.038C387.861 231.711 390.505 231.047 393.475 231.047V242.77H390.528C387.017 242.77 384.374 243.591 382.596 245.245C380.819 246.899 379.93 249.767 379.93 253.851V275.857H368.77V231.688H379.93V238.551C381.37 236.211 383.237 234.377 385.555 233.049L385.544 233.038Z" fill="black"></path><path d="M409.108 273.731C405.71 271.841 403.032 269.174 401.097 265.72C399.162 262.267 398.184 258.284 398.184 253.761C398.184 249.239 399.185 245.256 401.176 241.802C403.167 238.348 405.89 235.671 409.344 233.792C412.798 231.902 416.657 230.957 420.909 230.957C425.162 230.957 429.009 231.902 432.474 233.792C435.928 235.682 438.651 238.348 440.642 241.802C442.633 245.256 443.635 249.25 443.635 253.761C443.635 258.273 442.611 262.267 440.563 265.72C438.516 269.174 435.748 271.852 432.272 273.731C428.784 275.621 424.892 276.566 420.594 276.566C416.297 276.566 412.516 275.621 409.108 273.731ZM426.287 265.36C428.064 264.382 429.493 262.908 430.551 260.939C431.608 258.97 432.148 256.585 432.148 253.761C432.148 249.565 431.046 246.336 428.841 244.075C426.636 241.814 423.935 240.689 420.752 240.689C417.568 240.689 414.89 241.814 412.741 244.075C410.593 246.336 409.513 249.565 409.513 253.761C409.513 257.958 410.559 261.187 412.663 263.448C414.767 265.709 417.41 266.834 420.594 266.834C422.608 266.834 424.509 266.339 426.298 265.36H426.287Z" fill="black"></path><path d="M451.631 241.724C453.409 238.27 455.828 235.615 458.888 233.747C461.948 231.891 465.356 230.957 469.137 230.957C472.433 230.957 475.313 231.621 477.788 232.948C480.263 234.276 482.243 235.952 483.728 237.977V231.677H494.967V275.846H483.728V269.388C482.299 271.458 480.308 273.179 477.788 274.529C475.268 275.891 472.354 276.566 469.058 276.566C465.334 276.566 461.948 275.609 458.888 273.697C455.828 271.784 453.409 269.084 451.631 265.608C449.854 262.132 448.965 258.126 448.965 253.604C448.965 249.081 449.854 245.177 451.631 241.724ZM482.131 246.786C481.062 244.851 479.633 243.355 477.822 242.32C476.011 241.285 474.075 240.767 472.005 240.767C469.935 240.767 468.023 241.274 466.268 242.286C464.513 243.299 463.095 244.772 462.004 246.707C460.913 248.654 460.373 250.949 460.373 253.604C460.373 256.259 460.913 258.588 462.004 260.579C463.095 262.57 464.524 264.1 466.313 265.158C468.09 266.227 469.992 266.755 472.017 266.755C474.042 266.755 476.033 266.238 477.833 265.203C479.644 264.168 481.073 262.683 482.142 260.737C483.199 258.801 483.739 256.473 483.739 253.761C483.739 251.05 483.211 248.721 482.142 246.786H482.131Z" fill="black"></path><path d="M573.862 236.042C577.181 239.361 578.846 244.007 578.846 249.959V275.868H567.685V251.466C567.685 248.012 566.808 245.368 565.053 243.535C563.298 241.701 560.902 240.79 557.875 240.79C554.849 240.79 552.441 241.701 550.664 243.535C548.886 245.368 547.997 248.012 547.997 251.466V275.868H536.837V251.466C536.837 248.012 535.96 245.368 534.205 243.535C532.45 241.701 530.053 240.79 527.027 240.79C524.001 240.79 521.514 241.701 519.737 243.535C517.959 245.368 517.07 248.012 517.07 251.466V275.868H505.91V231.699H517.07V237.043C518.51 235.187 520.356 233.724 522.617 232.656C524.878 231.598 527.364 231.058 530.076 231.058C533.53 231.058 536.612 231.789 539.324 233.252C542.035 234.714 544.139 236.796 545.624 239.507C547.064 236.953 549.145 234.906 551.879 233.364C554.613 231.823 557.583 231.047 560.767 231.047C566.189 231.047 570.554 232.712 573.884 236.031L573.862 236.042Z" fill="black"></path><path d="M628.661 240.845H620.933V275.845H609.615V240.845H604.586V231.676H609.615V229.448C609.615 224.026 611.156 220.043 614.239 217.489C617.321 214.936 621.968 213.743 628.189 213.9V223.306C625.478 223.249 623.588 223.699 622.53 224.667C621.461 225.623 620.933 227.356 620.933 229.853V231.687H628.661V240.856V240.845Z" fill="black"></path><path d="M652.723 233.038C655.041 231.711 657.673 231.047 660.655 231.047V242.77H657.707C654.197 242.77 651.553 243.591 649.776 245.245C647.998 246.899 647.109 249.767 647.109 253.851V275.857H635.949V231.688H647.109V238.551C648.55 236.211 650.417 234.377 652.735 233.049L652.723 233.038Z" fill="black"></path><path d="M708.891 257.114H676.602C676.872 260.309 677.986 262.807 679.955 264.607C681.924 266.418 684.343 267.318 687.211 267.318C691.363 267.318 694.31 265.54 696.065 261.974H708.103C706.832 266.227 704.379 269.725 700.768 272.459C697.157 275.193 692.713 276.566 687.448 276.566C683.195 276.566 679.381 275.621 676.006 273.731C672.631 271.841 669.999 269.174 668.108 265.72C666.218 262.267 665.273 258.284 665.273 253.761C665.273 249.239 666.207 245.177 668.063 241.724C669.92 238.27 672.53 235.615 675.882 233.747C679.235 231.891 683.083 230.957 687.448 230.957C691.813 230.957 695.413 231.857 698.732 233.668C702.051 235.48 704.638 238.045 706.461 241.364C708.294 244.682 709.217 248.496 709.217 252.805C709.217 254.403 709.104 255.831 708.902 257.114H708.891ZM697.652 249.621C697.595 246.752 696.56 244.457 694.547 242.725C692.533 240.992 690.058 240.137 687.133 240.137C684.365 240.137 682.048 240.97 680.158 242.646C678.267 244.322 677.109 246.651 676.692 249.621H697.663H697.652Z" fill="black"></path><path d="M758.082 257.114H725.794C726.064 260.309 727.178 262.807 729.146 264.607C731.115 266.418 733.534 267.318 736.403 267.318C740.554 267.318 743.502 265.54 745.257 261.974H757.295C756.023 266.227 753.571 269.725 749.959 272.459C746.348 275.193 741.904 276.566 736.639 276.566C732.387 276.566 728.573 275.621 725.198 273.731C721.823 271.841 719.19 269.174 717.3 265.72C715.41 262.267 714.465 258.284 714.465 253.761C714.465 249.239 715.399 245.177 717.255 241.724C719.111 238.27 721.721 235.615 725.074 233.747C728.426 231.891 732.274 230.957 736.639 230.957C741.004 230.957 744.604 231.857 747.923 233.668C751.242 235.48 753.83 238.045 755.652 241.364C757.486 244.682 758.408 248.496 758.408 252.805C758.408 254.403 758.296 255.831 758.093 257.114H758.082ZM746.843 249.621C746.787 246.752 745.752 244.457 743.738 242.725C741.713 240.992 739.249 240.137 736.324 240.137C733.557 240.137 731.239 240.97 729.349 242.646C727.459 244.322 726.3 246.651 725.884 249.621H746.854H746.843Z" fill="black"></path><path d="M777.688 216.844V275.84H766.527V216.844H777.688Z" fill="black"></path><path d="M830.938 231.674L803.589 296.734H791.708L801.271 274.729L783.574 231.674H796.096L807.492 262.533L819.058 231.674H830.938Z" fill="black"></path></g><defs><clipPath id="clip0_8136_12885"><rect fill="white" height="300" width="831.418"></rect></clipPath></defs></svg>