<svg width="512" height="256" viewBox="0 0 512 256" fill="none" xmlns="http://www.w3.org/2000/svg">
<path d="M187.61 18H46.7543C20.8949 18 0 38.8949 0 64.7543V149.223C0 175.008 20.8949 195.977 46.7543 195.977H154.119L224.361 238.434L207.616 194.347C227.621 189.012 242.292 170.859 242.292 149.223V77.8692L187.61 18Z" fill="#00B2A9"/>
<path d="M320.833 140.184C316.165 140.184 311.794 139.369 307.793 137.664C303.792 136.034 300.309 133.737 297.419 130.848C294.53 127.958 292.233 124.624 290.603 120.771C288.972 116.918 288.157 112.768 288.157 108.397V108.248C288.157 103.877 288.972 99.7274 290.603 95.8744C292.233 92.0215 294.604 88.6131 297.567 85.7234C300.531 82.8336 304.014 80.5367 308.015 78.9066C312.016 77.2765 316.388 76.3873 321.056 76.3873C325.724 76.3873 330.095 77.2024 334.097 78.9066C338.098 80.5367 341.58 82.8336 344.47 85.7234C347.36 88.6131 349.657 91.9474 351.287 95.8004C352.917 99.6533 353.806 103.803 353.806 108.174V108.322C353.806 112.694 352.991 116.843 351.287 120.696C349.657 124.549 347.286 127.958 344.396 130.848C341.432 133.737 337.95 136.034 333.948 137.664C329.947 139.369 325.576 140.184 320.833 140.184ZM320.982 124.92C323.279 124.92 325.427 124.475 327.354 123.586C329.28 122.697 330.91 121.511 332.244 120.03C333.578 118.548 334.615 116.843 335.356 114.843C336.097 112.842 336.468 110.768 336.468 108.545V108.397C336.468 106.174 336.097 104.099 335.356 102.098C334.615 100.098 333.504 98.3937 332.096 96.8377C330.688 95.3558 329.058 94.0962 327.132 93.207C325.205 92.3179 323.056 91.8733 320.759 91.8733C318.462 91.8733 316.314 92.3179 314.461 93.207C312.535 94.0962 310.905 95.2817 309.571 96.7636C308.237 98.2455 307.126 100.024 306.459 101.95C305.718 103.951 305.348 106.026 305.348 108.248V108.397C305.348 110.619 305.718 112.694 306.459 114.695C307.2 116.695 308.311 118.399 309.645 119.955C310.979 121.437 312.683 122.697 314.609 123.586C316.536 124.475 318.685 124.92 320.982 124.92Z" fill="#606060"/>
<path d="M287.787 124.549H271.56V77.8693H254.666V139.369H301.05C298.827 137.961 296.827 136.405 294.974 134.626C292.085 131.737 289.64 128.328 287.787 124.549Z" fill="#606060"/>
<path d="M384.926 140.258C380.554 140.258 376.479 139.442 372.626 137.886C368.773 136.33 365.439 134.108 362.623 131.292C359.808 128.476 357.585 125.142 355.881 121.215C354.251 117.362 353.361 113.139 353.361 108.545V108.396C353.361 103.951 354.177 99.8014 355.807 95.9484C357.437 92.0955 359.66 88.6871 362.549 85.7973C365.365 82.9076 368.773 80.6107 372.7 78.9806C376.627 77.3505 380.925 76.5354 385.593 76.5354C388.705 76.5354 391.595 76.8318 394.114 77.4245C396.633 78.0173 399.004 78.9065 401.153 80.0179C403.302 81.1293 405.154 82.5371 406.932 84.0931C408.637 85.6491 410.193 87.4274 411.526 89.2798L398.782 99.2086C397.004 96.9858 395.151 95.2075 393.003 93.9478C390.928 92.6882 388.409 92.0214 385.445 92.0214C383.296 92.0214 381.37 92.4659 379.591 93.281C377.813 94.096 376.257 95.2816 374.997 96.7635C373.738 98.2454 372.7 99.9496 371.959 101.95C371.218 103.951 370.848 106.025 370.848 108.248V108.396C370.848 110.693 371.218 112.842 371.959 114.843C372.7 116.843 373.664 118.622 374.997 120.029C376.257 121.511 377.813 122.623 379.591 123.512C381.37 124.327 383.296 124.772 385.445 124.772C387.001 124.772 388.483 124.623 389.742 124.253C391.076 123.882 392.262 123.364 393.299 122.697C394.41 122.03 395.374 121.215 396.337 120.326C397.3 119.437 398.263 118.399 399.152 117.288L411.897 126.402C410.415 128.402 408.859 130.255 407.155 131.885C405.451 133.589 403.524 135.071 401.301 136.256C399.152 137.516 396.707 138.479 393.966 139.146C391.298 139.887 388.26 140.258 384.926 140.258Z" fill="#606060"/>
<path d="M431.829 77.8693H448.13L474.063 139.294H455.91L451.464 128.402H427.902L423.53 139.294H405.747L431.829 77.8693ZM446.648 115.287L439.831 97.9491L432.94 115.287H446.648Z" fill="#606060"/>
<path d="M473.915 77.8693H490.809V124.549H511.704V139.369H473.915V77.8693Z" fill="#606060"/>
<path d="M53.7932 140.702C48.5325 140.702 43.494 139.961 38.5296 138.479C33.6393 136.997 28.9712 134.7 24.6737 131.588L32.7501 118.548C36.3067 120.919 39.9374 122.697 43.6422 123.808C47.3469 124.994 50.7553 125.587 53.9414 125.587C57.5721 125.587 59.4245 124.475 59.4245 122.252V122.03C59.4245 120.845 58.6095 119.881 56.9053 119.214C55.2011 118.548 52.7559 117.733 49.4957 116.843C46.4578 116.102 43.6422 115.213 40.9747 114.176C38.3073 113.139 36.0103 111.879 34.0097 110.397C32.0092 108.915 30.4532 107.137 29.3417 104.988C28.2303 102.839 27.6375 100.246 27.6375 97.134V96.9117C27.6375 93.6515 28.2303 90.7617 29.4899 88.2425C30.7495 85.7232 32.4537 83.5745 34.6766 81.8703C36.8995 80.1661 39.4928 78.8324 42.4566 77.9432C45.4205 77.0541 48.7547 76.6095 52.3113 76.6095C56.8312 76.6095 61.351 77.2023 65.7226 78.4619C70.0943 79.7215 74.0954 81.4998 77.652 83.7227L70.2425 97.3562C67.0563 95.5779 63.8702 94.2442 60.61 93.2069C57.3498 92.1696 54.5342 91.6509 52.0891 91.6509C50.3849 91.6509 49.1993 91.9473 48.3102 92.4659C47.4951 93.0587 47.0506 93.7256 47.0506 94.5406V94.7629C47.0506 95.9484 47.8656 96.9117 49.6439 97.6526C51.3481 98.3936 53.7932 99.2086 57.0534 100.246C60.0914 101.061 62.907 102.024 65.5744 103.062C68.2419 104.099 70.5388 105.359 72.5394 106.84C74.54 108.322 76.096 110.101 77.2074 112.249C78.3189 114.398 78.9116 116.917 78.9116 119.881V120.104C78.9116 123.512 78.3189 126.476 77.0592 128.995C75.8737 131.514 74.1695 133.663 71.9466 135.441C69.7238 137.22 67.1304 138.479 64.0184 139.368C60.9064 140.258 57.498 140.702 53.7932 140.702Z" fill="white"/>
<path d="M84.7653 77.8691H106.475V139.368H84.7653V77.8691Z" fill="white"/>
<path d="M84.7651 59.2712C84.7651 53.2695 89.6554 48.3792 95.6572 48.3792C101.659 48.3792 106.549 53.2695 106.549 59.2712C106.549 65.2729 101.659 70.1632 95.6572 70.1632C89.5813 70.0891 84.7651 65.2729 84.7651 59.2712Z" fill="white"/>
<path d="M114.922 77.8691H136.632V86.316C138.633 83.7227 141.078 81.4998 144.042 79.4992C147.005 77.4986 150.636 76.5354 154.934 76.5354C159.009 76.5354 162.566 77.4245 165.603 79.1287C168.641 80.907 171.012 83.3522 172.643 86.5383C175.31 83.4263 178.274 80.9811 181.534 79.2028C184.794 77.4245 188.721 76.5354 193.241 76.5354C199.836 76.5354 205.022 78.4619 208.727 82.3889C212.432 86.316 214.284 91.8732 214.284 99.0604V139.442H192.574V106.025C192.574 102.617 191.833 100.024 190.277 98.3195C188.795 96.6153 186.721 95.7261 184.201 95.7261C181.608 95.7261 179.533 96.6153 177.903 98.3195C176.273 100.024 175.384 102.617 175.384 106.025V139.442H153.674V106.025C153.674 102.617 152.933 100.024 151.377 98.3195C149.895 96.6153 147.821 95.7261 145.301 95.7261C142.708 95.7261 140.633 96.6153 139.003 98.3195C137.373 100.024 136.558 102.617 136.558 106.025V139.442H114.848V77.8691H114.922Z" fill="white"/>
</svg>
